<svg xmlns="http://www.w3.org/2000/svg" width="1025" height="1025" viewBox="0 0 1025 1025">
  <defs>
    <style>
      .cls-1 {
        fill: #fff;
        stroke: #fff;
        stroke-width: 66.46px;
        fill-rule: evenodd;
      }
    </style>
  </defs>
  <path class="cls-1" d="M0,0H326.944V47.225H0V0ZM0,0H326.944V47.225H0V0ZM0,0H326.944V47.225H0V0ZM0,0H326.944V47.225H0V0Z"/>
  <path id="Rectangle_1_copy" data-name="Rectangle 1 copy" class="cls-1" d="M47.225,0V326.944H0V0H47.225Zm0,0V326.944H0V0H47.225Zm0,0V326.944H0V0H47.225Zm0,0V326.944H0V0H47.225Z"/>
  <path class="cls-1" d="M1025,1025H698.056V977.775H1025V1025Zm0,0H698.056V977.775H1025V1025Zm0,0H698.056V977.775H1025V1025Zm0,0H698.056V977.775H1025V1025Z"/>
  <path id="Rectangle_1_copy-2" data-name="Rectangle 1 copy" class="cls-1" d="M977.775,1025V698.056H1025V1025H977.775Zm0,0V698.056H1025V1025H977.775Zm0,0V698.056H1025V1025H977.775Zm0,0V698.056H1025V1025H977.775Z"/>
  <path class="cls-1" d="M1025,0V326.944H977.775V0H1025Zm0,0V326.944H977.775V0H1025Zm0,0V326.944H977.775V0H1025Zm0,0V326.944H977.775V0H1025Z"/>
  <path id="Rectangle_1_copy-3" data-name="Rectangle 1 copy" class="cls-1" d="M1025,47.225H698.056V0H1025V47.225Zm0,0H698.056V0H1025V47.225Zm0,0H698.056V0H1025V47.225Zm0,0H698.056V0H1025V47.225Z"/>
  <path class="cls-1" d="M0,1025V698.056H47.225V1025H0Zm0,0V698.056H47.225V1025H0Zm0,0V698.056H47.225V1025H0Zm0,0V698.056H47.225V1025H0Z"/>
  <path id="Rectangle_1_copy-4" data-name="Rectangle 1 copy" class="cls-1" d="M0,977.775H326.944V1025H0V977.775Zm0,0H326.944V1025H0V977.775Zm0,0H326.944V1025H0V977.775Zm0,0H326.944V1025H0V977.775Z"/>
</svg>
